<svg width="1029" height="126" viewBox="0 0 1029 126" fill="none" xmlns="http://www.w3.org/2000/svg">
<path d="M-3.35798e-05 4.45507C-3.35798e-05 2.58507 0.824966 1.65007 2.47497 1.65007H81.18C82.61 1.65007 83.325 2.47507 83.325 4.12507L83.16 16.6651C83.16 18.7551 82.225 19.8001 80.355 19.8001H27.225C25.355 19.8001 24.42 20.5701 24.42 22.1101V52.8001C24.42 54.4501 25.19 55.2751 26.73 55.2751H65.34C66.88 55.2751 67.65 56.0451 67.65 57.5851V70.7851C67.65 72.1051 66.88 72.7651 65.34 72.7651H26.565C25.135 72.7651 24.42 73.4801 24.42 74.9101V120.945C24.42 123.035 23.21 124.08 20.79 124.08H2.13497C1.92497 124.08 1.09997 123.86 0.659967 123.42C0.219966 122.87 -3.35798e-05 122.1 -3.35798e-05 121.11V4.45507ZM132.874 115.005C129.134 118.305 125.064 120.945 120.664 122.925C116.264 124.795 111.259 125.73 105.649 125.73C97.179 125.73 90.524 123.53 85.684 119.13C80.954 114.62 78.589 108.79 78.589 101.64C78.589 95.5901 80.404 90.3651 84.034 85.9651C87.664 81.4551 92.944 77.9351 99.874 75.4051C106.804 72.8751 115.109 71.3901 124.789 70.9501L133.039 70.4551C133.699 70.3451 134.304 70.1251 134.854 69.7951C135.404 69.4651 135.679 68.8601 135.679 67.9801V64.1851C135.679 59.3451 134.249 55.6051 131.389 52.9651C128.529 50.2151 124.569 48.8401 119.509 48.8401C115.659 48.8401 112.029 49.7201 108.619 51.4801C105.319 53.1301 102.459 55.8801 100.039 59.7301C99.709 60.3901 99.324 60.8301 98.884 61.0501C98.554 61.2701 97.894 61.2701 96.904 61.0501L83.044 57.5851C82.494 57.3651 82.054 57.0351 81.724 56.5951C81.504 56.1551 81.724 55.2751 82.384 53.9551C85.354 47.6851 90.029 42.9551 96.409 39.7651C102.899 36.5751 110.929 34.9801 120.499 34.9801C128.969 34.9801 135.789 36.1351 140.959 38.4451C146.239 40.7551 150.089 44.0001 152.509 48.1801C154.929 52.2501 156.139 57.0901 156.139 62.7001V120.78C156.139 121.99 155.919 122.87 155.479 123.42C155.149 123.86 154.434 124.08 153.334 124.08H139.309C138.319 124.08 137.604 123.695 137.164 122.925C136.724 122.155 136.449 121.22 136.339 120.12L136.009 115.17C135.789 113.3 134.744 113.245 132.874 115.005ZM135.679 84.1501C135.679 82.1701 134.854 81.2351 133.204 81.3451L126.439 81.8401C122.919 82.0601 119.509 82.6101 116.209 83.4901C113.019 84.2601 110.159 85.3601 107.629 86.7901C105.209 88.1101 103.229 89.8151 101.689 91.9051C100.259 93.8851 99.544 96.2501 99.544 99.0001C99.544 102.74 100.864 105.71 103.504 107.91C106.254 110.11 109.939 111.21 114.559 111.21C117.529 111.21 120.279 110.715 122.809 109.725C125.339 108.735 127.539 107.47 129.409 105.93C131.279 104.39 132.764 102.795 133.864 101.145C135.074 99.3851 135.679 97.6251 135.679 95.8651V84.1501ZM215.311 34.9801C221.911 34.9801 227.631 36.1351 232.471 38.4451C237.311 40.6451 241.271 43.5601 244.351 47.1901C247.541 50.7101 249.961 54.4501 251.611 58.4101C252.271 60.3901 251.721 61.4351 249.961 61.5451L235.441 63.3601C234.341 63.5801 233.571 63.0851 233.131 61.8751C231.701 59.4551 230.216 57.3101 228.676 55.4401C227.136 53.5701 225.376 52.0851 223.396 50.9851C221.416 49.8851 218.996 49.3351 216.136 49.3351C211.736 49.3351 207.831 50.5451 204.421 52.9651C201.121 55.2751 198.536 58.7401 196.666 63.3601C194.906 67.9801 194.026 73.6451 194.026 80.3551C194.026 87.1751 194.961 92.8951 196.831 97.5151C198.811 102.135 201.506 105.655 204.916 108.075C208.326 110.385 212.396 111.54 217.126 111.54C222.076 111.54 226.146 110.275 229.336 107.745C232.526 105.105 235.496 101.475 238.246 96.8551C238.576 96.4151 238.906 96.1401 239.236 96.0301C239.566 95.9201 240.116 95.9751 240.886 96.1951L251.281 99.0001C252.381 99.3301 252.711 100.265 252.271 101.805C251.171 104.335 249.576 107.03 247.486 109.89C245.506 112.75 243.031 115.39 240.061 117.81C237.091 120.12 233.516 122.045 229.336 123.585C225.266 125.015 220.591 125.73 215.311 125.73C206.951 125.73 199.526 123.86 193.036 120.12C186.546 116.27 181.431 110.99 177.691 104.28C174.061 97.4601 172.246 89.5951 172.246 80.6851C172.246 71.6651 174.116 63.7451 177.856 56.9251C181.596 49.9951 186.711 44.6051 193.201 40.7551C199.691 36.9051 207.061 34.9801 215.311 34.9801ZM296.528 51.6451C295.428 51.6451 294.878 52.2501 294.878 53.4601V97.5151C294.878 101.805 295.758 104.775 297.518 106.425C299.278 108.075 302.028 108.9 305.768 108.9H215.503C316.163 108.9 316.713 109.12 317.153 109.56C317.593 110 317.813 110.55 317.813 111.21L317.648 119.79C317.648 121.55 316.603 122.65 314.513 123.09C312.863 123.31 310.938 123.53 308.738 123.75C306.538 123.86 304.338 123.97 302.138 124.08C300.048 124.08 298.123 124.08 296.363 124.08C288.993 124.08 283.328 122.375 279.368 118.965C275.408 115.445 273.428 110.165 273.428 103.125V53.7901C273.428 52.3601 272.768 51.6451 271.448 51.6451H260.393C258.633 51.6451 257.753 50.8201 257.753 49.1701V38.7751C257.753 37.3451 258.578 36.6301 260.228 36.6301H272.438C273.428 36.6301 273.923 36.0801 273.923 34.9801L276.068 9.57008C276.178 7.81007 276.948 6.93007 278.378 6.93007H293.063C294.603 6.93007 295.373 7.86507 295.373 9.73508V34.9801C295.373 35.9701 295.868 36.4651 296.858 36.4651H215.503C317.153 36.4651 317.978 37.2351 317.978 38.7751V49.1701C317.978 50.8201 317.043 51.6451 315.173 51.6451H296.528ZM385.132 125.73C374.242 125.73 364.727 123.2 356.587 118.14C348.557 112.97 342.342 105.71 337.942 96.3601C333.542 87.0101 331.342 76.0101 331.342 63.3601C331.342 50.2701 333.652 38.9951 338.272 29.5351C342.892 20.0751 349.327 12.8151 357.577 7.75507C365.827 2.58507 375.452 7.25389e-05 386.452 7.25389e-05C394.922 7.25389e-05 402.567 1.65007 409.387 4.95007C416.207 8.25007 421.762 12.4851 426.052 17.6551C430.452 22.8251 433.147 28.3801 434.137 34.3201C434.467 35.7501 434.522 36.6851 434.302 37.1251C434.082 37.5651 433.477 37.8951 432.487 38.1151L414.172 40.9201C413.292 40.9201 412.687 40.7551 412.357 40.4251C412.137 40.0951 411.917 39.4901 411.697 38.6101C411.037 34.7601 409.552 31.2401 407.242 28.0501C405.042 24.8601 402.127 22.3301 398.497 20.4601C394.867 18.4801 390.687 17.4901 385.957 17.4901C379.797 17.4901 374.517 19.0851 370.117 22.2751C365.827 25.4651 362.527 30.3601 360.217 36.9601C358.017 43.5601 356.917 52.0301 356.917 62.3701C356.917 73.2601 358.072 82.0601 360.382 88.7701C362.692 95.4801 366.102 100.43 370.612 103.62C375.122 106.7 380.457 108.24 386.617 108.24C390.797 108.24 394.427 107.58 397.507 106.26C400.697 104.94 403.392 103.235 405.592 101.145C407.792 98.9451 409.497 96.5251 410.707 93.8851C412.027 91.1351 412.907 88.3851 413.347 85.6351L413.512 79.0351C413.952 77.6051 413.457 76.8901 412.027 76.8901H289.587C388.817 76.8901 388.212 76.7251 387.772 76.3951C387.442 76.0651 387.277 75.4051 387.277 74.4151V63.8551C387.277 62.5351 388.047 61.8751 389.587 61.8751L432.487 62.0401C433.807 62.0401 434.797 62.3701 435.457 63.0301C436.117 63.5801 436.447 64.3501 436.447 65.3401V121.77C436.447 122.54 436.227 123.145 435.787 123.585C435.457 123.915 434.962 124.08 434.302 124.08H429.517C428.637 124.08 427.867 123.915 427.207 123.585C426.657 123.255 426.107 122.595 425.557 121.605L421.927 108.57C421.707 108.13 421.432 107.91 421.102 107.91C420.882 107.91 420.607 108.185 420.277 108.735C418.187 111.485 415.602 114.18 412.522 116.82C409.552 119.46 405.812 121.605 401.302 123.255C396.902 124.905 391.512 125.73 385.132 125.73ZM490.413 110.055C494.263 110.055 497.893 109.01 501.303 106.92C504.823 104.83 508.178 102.08 511.368 98.6701V39.9301C511.368 37.7301 512.633 36.6301 515.163 36.6301H530.013C531.993 36.6301 532.983 37.6751 532.983 39.7651L532.653 121.44C532.653 123.2 531.883 124.08 530.343 124.08H514.173C512.633 124.08 511.863 123.255 511.863 121.605V112.86C511.863 112.31 511.698 111.98 511.368 111.87C511.148 111.65 510.763 111.815 510.213 112.365C505.043 117.205 500.148 120.67 495.528 122.76C490.908 124.74 486.123 125.73 481.173 125.73C476.223 125.73 471.823 124.685 467.973 122.595C464.123 120.505 461.098 117.48 458.898 113.52C456.698 109.56 455.598 104.94 455.598 99.6601V40.0951C455.598 37.7851 456.753 36.6301 459.063 36.6301H474.243C476.113 36.6301 477.048 37.6751 477.048 39.7651V96.0301C477.048 100.21 478.203 103.62 480.513 106.26C482.933 108.79 486.233 110.055 490.413 110.055ZM601.77 115.005C598.03 118.305 593.96 120.945 589.56 122.925C585.16 124.795 580.155 125.73 574.545 125.73C566.075 125.73 559.42 123.53 554.58 119.13C549.85 114.62 547.485 108.79 547.485 101.64C547.485 95.5901 549.3 90.3651 552.93 85.9651C556.56 81.4551 561.84 77.9351 568.77 75.4051C575.7 72.8751 584.005 71.3901 593.685 70.9501L601.935 70.4551C602.595 70.3451 603.2 70.1251 603.75 69.7951C604.3 69.4651 604.575 68.8601 604.575 67.9801V64.1851C604.575 59.3451 603.145 55.6051 600.285 52.9651C597.425 50.2151 593.465 48.8401 588.405 48.8401C584.555 48.8401 580.925 49.7201 577.515 51.4801C574.215 53.1301 571.355 55.8801 568.935 59.7301C568.605 60.3901 568.22 60.8301 567.78 61.0501C567.45 61.2701 566.79 61.2701 565.8 61.0501L551.94 57.5851C551.39 57.3651 550.95 57.0351 550.62 56.5951C550.4 56.1551 550.62 55.2751 551.28 53.9551C554.25 47.6851 558.925 42.9551 565.305 39.7651C571.795 36.5751 579.825 34.9801 589.395 34.9801C597.865 34.9801 604.685 36.1351 609.855 38.4451C615.135 40.7551 618.985 44.0001 621.405 48.1801C623.825 52.2501 625.035 57.0901 625.035 62.7001V120.78C625.035 121.99 624.815 122.87 624.375 123.42C624.045 123.86 623.33 124.08 622.23 124.08H608.205C607.215 124.08 606.5 123.695 606.06 122.925C605.62 122.155 605.345 121.22 605.235 120.12L604.905 115.17C604.685 113.3 603.64 113.245 601.77 115.005ZM604.575 84.1501C604.575 82.1701 603.75 81.2351 602.1 81.3451L595.335 81.8401C591.815 82.0601 588.405 82.6101 585.105 83.4901C581.915 84.2601 579.055 85.3601 576.525 86.7901C574.105 88.1101 572.125 89.8151 570.585 91.9051C569.155 93.8851 568.44 96.2501 568.44 99.0001C568.44 102.74 569.76 105.71 572.4 107.91C575.15 110.11 578.835 111.21 583.455 111.21C586.425 111.21 589.175 110.715 591.705 109.725C594.235 108.735 596.435 107.47 598.305 105.93C600.175 104.39 601.66 102.795 602.76 101.145C603.97 99.3851 604.575 97.6251 604.575 95.8651V84.1501ZM641.809 124.08V110.867L653.491 108.45V52.6177L640.922 50.2007V36.9072H673.794L674.76 47.7837L674.922 49.6367C677.124 44.9639 679.863 41.4189 683.139 39.002C686.416 36.5312 690.283 35.2959 694.741 35.2959C696.191 35.2959 697.749 35.4302 699.414 35.6987C701.132 35.9136 702.583 36.209 703.764 36.585L701.267 56.8071L689.746 56.1626C686.255 56.0015 683.381 56.646 681.125 58.0962C678.923 59.5464 677.016 61.6143 675.405 64.2998V108.45L687.087 110.867V124.08H641.809ZM777.711 124.08C776.831 124.08 776.061 123.86 775.401 123.42C774.851 122.98 774.576 122.21 774.576 121.11V115.665C774.576 114.895 774.356 114.455 773.916 114.345C773.476 114.235 772.981 114.455 772.431 115.005C770.781 116.545 768.856 118.14 766.656 119.79C764.456 121.44 761.761 122.87 758.571 124.08C755.491 125.18 751.806 125.73 747.516 125.73C740.806 125.73 734.811 124.08 729.531 120.78C724.251 117.48 720.071 112.53 716.991 105.93C713.911 99.3301 712.371 91.0801 712.371 81.1801C712.371 71.9401 713.966 63.8551 717.156 56.9251C720.456 49.9951 724.911 44.6051 730.521 40.7551C736.131 36.9051 742.401 34.9801 749.331 34.9801C754.171 34.9801 758.296 35.7501 761.706 37.2901C765.226 38.8301 768.471 40.9751 771.441 43.7251C772.431 44.3851 773.146 44.6601 773.586 44.5501C774.026 44.3301 774.246 43.6151 774.246 42.4051V4.29008C774.246 2.53007 775.016 1.65007 776.556 1.65007H793.221C794.871 1.65007 795.696 2.58507 795.696 4.45507V120.945C795.696 122.045 795.421 122.87 794.871 123.42C794.431 123.86 793.551 124.08 792.231 124.08H777.711ZM774.246 58.2451C771.386 55.3851 768.526 53.1851 765.666 51.6451C762.916 49.9951 759.726 49.1701 756.096 49.1701C751.916 49.1701 748.121 50.3251 744.711 52.6351C741.411 54.8351 738.826 58.3001 736.956 63.0301C735.086 67.6501 734.151 73.5901 734.151 80.8501C734.151 88.2201 735.086 94.2151 736.956 98.8351C738.826 103.345 741.356 106.645 744.546 108.735C747.846 110.825 751.531 111.87 755.601 111.87C759.121 111.87 762.256 111.045 765.006 109.395C767.866 107.745 770.121 105.655 771.771 103.125C773.421 100.595 774.246 98.0651 774.246 95.5351V58.2451ZM838.009 120.45C838.009 121.77 837.679 122.705 837.019 123.255C836.469 123.805 835.479 124.08 834.049 124.08H819.694C818.484 124.08 817.659 123.86 817.219 123.42C816.779 122.87 816.559 122.1 816.559 121.11V39.4351C816.559 37.5651 817.384 36.6301 819.034 36.6301H835.699C837.239 36.6301 838.009 37.5101 838.009 39.2701V120.45ZM838.339 20.4601C838.339 22.9901 837.019 24.2551 834.379 24.2551H819.364C818.154 24.2551 817.329 23.9801 816.889 23.4301C816.449 22.8801 816.229 22.0551 816.229 20.9551V4.78507C816.229 2.69507 817.109 1.65007 818.869 1.65007H835.864C837.514 1.65007 838.339 2.58507 838.339 4.45507V20.4601ZM906.956 115.005C903.216 118.305 899.146 120.945 894.746 122.925C890.346 124.795 885.341 125.73 879.731 125.73C871.261 125.73 864.606 123.53 859.766 119.13C855.036 114.62 852.671 108.79 852.671 101.64C852.671 95.5901 854.486 90.3651 858.116 85.9651C861.746 81.4551 867.026 77.9351 873.956 75.4051C880.886 72.8751 889.191 71.3901 898.871 70.9501L907.121 70.4551C907.781 70.3451 908.386 70.1251 908.936 69.7951C909.486 69.4651 909.761 68.8601 909.761 67.9801V64.1851C909.761 59.3451 908.331 55.6051 905.471 52.9651C902.611 50.2151 898.651 48.8401 893.591 48.8401C889.741 48.8401 886.111 49.7201 882.701 51.4801C879.401 53.1301 876.541 55.8801 874.121 59.7301C873.791 60.3901 873.406 60.8301 872.966 61.0501C872.636 61.2701 871.976 61.2701 870.986 61.0501L857.126 57.5851C856.576 57.3651 856.136 57.0351 855.806 56.5951C855.586 56.1551 855.806 55.2751 856.466 53.9551C859.436 47.6851 864.111 42.9551 870.491 39.7651C876.981 36.5751 885.011 34.9801 894.581 34.9801C903.051 34.9801 909.871 36.1351 915.041 38.4451C920.321 40.7551 924.171 44.0001 926.591 48.1801C929.011 52.2501 930.221 57.0901 930.221 62.7001V120.78C930.221 121.99 930.001 122.87 929.561 123.42C929.231 123.86 928.516 124.08 927.416 124.08H913.391C912.401 124.08 911.686 123.695 911.246 122.925C910.806 122.155 910.531 121.22 910.421 120.12L910.091 115.17C909.871 113.3 908.826 113.245 906.956 115.005ZM909.761 84.1501C909.761 82.1701 908.936 81.2351 907.286 81.3451L900.521 81.8401C897.001 82.0601 893.591 82.6101 890.291 83.4901C887.101 84.2601 884.241 85.3601 881.711 86.7901C879.291 88.1101 877.311 89.8151 875.771 91.9051C874.341 93.8851 873.626 96.2501 873.626 99.0001C873.626 102.74 874.946 105.71 877.586 107.91C880.336 110.11 884.021 111.21 888.641 111.21C891.611 111.21 894.361 110.715 896.891 109.725C899.421 108.735 901.621 107.47 903.491 105.93C905.361 104.39 906.846 102.795 907.946 101.145C909.156 99.3851 909.761 97.6251 909.761 95.8651V84.1501ZM953.753 124.08C951.773 124.08 950.783 123.09 950.783 121.11V39.4351C950.783 37.5651 951.553 36.6301 953.093 36.6301H969.593C971.023 36.6301 971.738 37.4551 971.738 39.1051V47.6851C971.738 48.3451 971.903 48.7851 972.233 49.0051C972.563 49.1151 973.003 48.8951 973.553 48.3451C976.743 45.5951 979.823 43.2301 982.793 41.2501C985.763 39.2701 988.843 37.7301 992.033 36.6301C995.223 35.5301 998.688 34.9801 1002.43 34.9801C1010.57 34.9801 1016.95 37.3451 1021.57 42.0751C1026.3 46.6951 1028.66 52.8551 1028.66 60.5551V120.615C1028.66 122.925 1027.51 124.08 1025.2 124.08H1010.02C1009.03 124.08 1008.31 123.86 1007.87 123.42C1007.43 122.98 1007.21 122.21 1007.21 121.11V64.3501C1007.21 60.0601 1006.06 56.7601 1003.75 54.4501C1001.44 52.0301 997.973 50.8201 993.353 50.8201C990.713 50.8201 988.238 51.2601 985.928 52.1401C983.728 52.9101 981.528 54.1201 979.328 55.7701C977.128 57.4201 974.763 59.5101 972.233 62.0401V120.78C972.233 122.98 970.968 124.08 968.438 124.08H953.753Z" fill="white"/>
</svg>
